<?xml version="1.0" encoding="utf-8"?>
<!-- Generator: Adobe Illustrator 25.4.1, SVG Export Plug-In . SVG Version: 6.00 Build 0)  -->
<svg version="1.0" xmlns="http://www.w3.org/2000/svg" xmlns:xlink="http://www.w3.org/1999/xlink" x="0px" y="0px"
	 viewBox="0 0 640 480" enable-background="new 0 0 640 480" xml:space="preserve">
<g id="Layer_1" display="none">
	
		<image display="inline" overflow="visible" width="600" height="620" xlink:href="107AB359.png"  transform="matrix(0.7952 0 0 0.7952 81 0)">
	</image>
</g>
<g id="Layer_2">
	<polygon fill="#0080ff" stroke="#000000" stroke-miterlimit="10" points="120.5,417.5 280.5,238.5 215.5,134.5 293.5,134.5 
		324.5,186.5 369.5,137.5 392.5,137.5 323.5,216.5 279.5,150.5 247.5,150.5 245.5,150.5 273.5,192.5 302.7,240 145.8,417.5 	"/>
	<g>
		<g>
			<g enable-background="new    ">
				<g>
					<polygon points="316.4,261.6 325.1,264.9 256.8,345.6 248,342.3 					"/>
				</g>
				<g>
					<polygon fill="#747474" points="271.8,341.9 280.5,345.2 256.8,345.6 248,342.3 					"/>
				</g>
				<g>
					<polygon points="272.2,342.9 280.9,346.2 254.6,346.7 245.9,343.3 					"/>
				</g>
				<g>
					<polygon fill="#7F7F7F" points="314.7,289.9 323.4,293.3 280.5,345.2 271.8,341.9 					"/>
				</g>
				<g>
					<polygon points="314.6,291.6 323.3,294.9 280.9,346.2 272.2,342.9 					"/>
				</g>
				<g>
					<polygon points="314.7,289.9 323.4,293.3 356.2,343.9 347.5,340.6 					"/>
				</g>
				<g>
					<polygon fill="#A4A4A4" points="316.4,261.6 325.1,264.9 365.6,329.8 356.9,326.4 					"/>
				</g>
				<g>
					<polygon points="316.6,259.9 325.3,263.2 366.1,328.8 357.4,325.4 					"/>
				</g>
				<g>
					<polygon points="487.9,56.8 496.6,60.1 345.3,239.9 336.6,236.5 					"/>
				</g>
				<g>
					<polygon points="394.5,325.8 403.2,329.1 365.6,329.8 356.9,326.4 					"/>
				</g>
				<g>
					<polygon points="336.6,236.5 345.3,239.9 403.2,329.1 394.5,325.8 					"/>
				</g>
				<g>
					<polygon points="510,56.4 518.7,59.7 496.6,60.1 487.9,56.8 					"/>
				</g>
				<g>
					<polygon fill="#7E7E7E" points="510,56.4 518.7,59.7 366,240.1 357.3,236.8 					"/>
				</g>
				<g>
					<polygon points="512.2,55.3 520.9,58.7 367,240.5 358.3,237.2 					"/>
				</g>
				<g>
					<polygon fill="#A4A4A4" points="357.3,236.8 366,240.1 432.3,342.6 423.6,339.2 					"/>
				</g>
				<g>
					<polygon fill="#747474" points="423.6,339.2 432.3,342.6 356.2,343.9 347.5,340.6 					"/>
				</g>
				<g>
					<polygon fill="#C2C2C2" points="510,56.4 357.3,236.8 423.6,339.2 347.5,340.6 314.7,289.9 271.8,341.9 248,342.3 316.4,261.6 
						356.9,326.4 394.5,325.8 336.6,236.5 487.9,56.8 					"/>
				</g>
				<g>
					<path d="M512.2,55.3L358.3,237.2l67.1,103l-78.4,1.4l-32.4-50l-42.4,51.3l-26.3,0.5l70.7-83.4l40.9,65.5l35.3-0.6l-57.3-88.3
						L487.5,55.8L512.2,55.3z M423.6,339.2l-66.5-102.1L510,56.4l-22.1,0.4L336.6,236.5l57.9,89.2l-37.6,0.7l-40.5-64.8L248,342.3
						l23.7-0.4l42.9-52l32.8,50.6L423.6,339.2"/>
				</g>
				<g>
					<polygon points="425.4,340.2 434.1,343.5 355.7,344.9 347,341.6 					"/>
				</g>
				<g>
					<polygon points="358.3,237.2 367,240.5 434.1,343.5 425.4,340.2 					"/>
				</g>
			</g>
		</g>
	</g>
</g>
</svg>
